<?xml version="1.0" encoding="UTF-8"?>
<svg id="Layer_1" xmlns="http://www.w3.org/2000/svg" version="1.1" viewBox="0 0 1080 1080">
  <!-- Generator: Adobe Illustrator 30.2.1, SVG Export Plug-In . SVG Version: 2.1.1 Build 1)  -->
  <defs>
    <style>
      .st0 {
        fill: #7d33ff;
      }

      .st1 {
        fill: #fff;
      }
    </style>
  </defs>
  <g>
    <polygon class="st0" points="474.33 515.67 419.53 515.68 419.53 486.22 474.29 486.21 474.33 515.67"/>
    <path class="st0" d="M545.04,515.68h0s-29.49-.04-29.49-.04c-11.59-75.24-11.84-127.17-96.03-117.07v87.64s-29.46,0-29.46,0v-117.22c68.51-3.74,124.22-3.14,142.79,75.54,6.03,23.11,8.39,47.52,12.18,71.1,0,0,0,.02,0,.03Z"/>
    <polygon class="st0" points="545.03 515.69 574.52 515.64 598.09 369.03 568.63 368.95 545.03 515.69"/>
    <polygon class="st0" points="598.09 369.03 621.65 515.64 651.14 515.69 627.54 368.95 598.09 369.03"/>
    <polygon class="st0" points="674.74 368.95 651.14 515.69 680.63 515.64 704.19 369.03 674.74 368.95"/>
  </g>
  <g>
    <g>
      <polygon class="st1" points="626.32 549.69 606.64 672.11 585.68 672.13 605.39 549.63 626.32 549.69"/>
      <polygon class="st1" points="504.4 672.13 483.43 672.11 463.76 549.69 484.7 549.63 504.4 672.13"/>
      <polygon class="st1" points="585.68 672.13 564.72 672.11 545.04 549.69 565.98 549.63 585.68 672.13"/>
      <polygon class="st1" points="545.04 549.69 525.36 672.11 504.4 672.13 524.11 549.63 545.04 549.69"/>
    </g>
    <polygon class="st1" points="916.94 572.13 880.93 712.16 901.41 712.14 937.39 572.2 916.94 572.13"/>
    <g>
      <polygon class="st1" points="399.23 672.13 419.72 672.11 445.71 570.91 425.26 570.84 399.23 672.13"/>
      <polygon class="st1" points="352.76 570.91 378.75 672.11 399.23 672.13 373.21 570.84 352.76 570.91"/>
    </g>
    <polygon class="st1" points="865.2 570.84 844.75 570.91 870.74 672.11 891.22 672.13 865.2 570.84"/>
    <path class="st1" d="M216.91,557.12c9.81,5,17.39,12.16,22.74,21.5,5.35,9.34,8.02,20.24,8.02,32.7s-2.68,23.27-8.02,32.43c-5.35,9.17-12.93,16.19-22.74,21.06-9.81,4.88-21.24,7.32-34.28,7.32h-40.01v-122.5h40.01c13.04,0,24.47,2.5,34.28,7.49ZM215.59,644.11c7.64-7.76,11.46-18.68,11.46-32.79s-3.82-25.32-11.46-33.31c-7.64-7.99-18.63-11.99-32.96-11.99h-19.92v89.72h19.92c14.34,0,25.32-3.88,32.96-11.63Z"/>
    <path class="st1" d="M352.05,631.06h-74.21c.59,7.76,3.46,13.99,8.64,18.68,5.17,4.7,11.52,7.05,19.04,7.05,10.81,0,18.45-4.52,22.91-13.57h21.68c-2.94,8.93-8.26,16.25-15.95,21.94-7.7,5.7-17.25,8.55-28.64,8.55-9.28,0-17.6-2.08-24.94-6.26-7.35-4.17-13.1-10.05-17.27-17.63-4.17-7.58-6.26-16.36-6.26-26.35s2.03-18.77,6.08-26.35c4.05-7.58,9.75-13.42,17.1-17.54,7.34-4.11,15.78-6.17,25.29-6.17s17.33,2,24.5,5.99c7.17,4,12.75,9.61,16.75,16.83,3.99,7.23,5.99,15.54,5.99,24.94,0,3.64-.24,6.94-.71,9.87ZM331.78,614.85c-.12-7.4-2.76-13.34-7.93-17.8-5.17-4.46-11.58-6.7-19.21-6.7-6.94,0-12.87,2.2-17.8,6.61-4.94,4.41-7.87,10.37-8.81,17.89h53.76Z"/>
    <path class="st1" d="M632.4,597.22c4.05-7.52,9.58-13.37,16.57-17.54,6.99-4.17,14.72-6.26,23.18-6.26,7.64,0,14.31,1.5,20.01,4.49,5.7,3,10.25,6.73,13.66,11.19v-14.1h20.27v97.12h-20.27v-14.45c-3.41,4.58-8.05,8.4-13.93,11.46-5.88,3.05-12.58,4.58-20.09,4.58-8.34,0-15.98-2.14-22.91-6.43-6.94-4.29-12.43-10.28-16.48-17.98-4.05-7.7-6.08-16.42-6.08-26.18s2.03-18.39,6.08-25.91ZM701.67,606.04c-2.76-4.94-6.38-8.69-10.84-11.28-4.47-2.58-9.28-3.88-14.45-3.88s-9.99,1.26-14.45,3.79c-4.47,2.53-8.08,6.23-10.84,11.1-2.76,4.88-4.14,10.66-4.14,17.36s1.38,12.58,4.14,17.63c2.76,5.05,6.4,8.9,10.93,11.55,4.52,2.64,9.31,3.97,14.37,3.97s9.99-1.29,14.45-3.88c4.46-2.58,8.08-6.37,10.84-11.37,2.76-4.99,4.14-10.84,4.14-17.54s-1.38-12.51-4.14-17.45Z"/>
    <path class="st1" d="M741.54,597.22c4.05-7.52,9.58-13.37,16.57-17.54,6.99-4.17,14.78-6.26,23.35-6.26,6.35,0,12.6,1.38,18.77,4.14,6.17,2.76,11.07,6.43,14.72,11.02v-46.89h20.27v130.44h-20.27v-14.63c-3.29,4.7-7.84,8.58-13.66,11.63-5.82,3.05-12.49,4.58-20.01,4.58-8.46,0-16.19-2.14-23.18-6.43-6.99-4.29-12.52-10.28-16.57-17.98-4.05-7.7-6.08-16.42-6.08-26.18s2.03-18.39,6.08-25.91ZM810.82,606.04c-2.76-4.94-6.38-8.69-10.84-11.28-4.47-2.58-9.28-3.88-14.45-3.88s-9.99,1.26-14.45,3.79c-4.47,2.53-8.08,6.23-10.84,11.1-2.76,4.88-4.14,10.66-4.14,17.36s1.38,12.58,4.14,17.63c2.76,5.05,6.4,8.9,10.93,11.55,4.52,2.64,9.31,3.97,14.37,3.97s9.99-1.29,14.45-3.88c4.46-2.58,8.08-6.37,10.84-11.37,2.76-4.99,4.14-10.84,4.14-17.54s-1.38-12.51-4.14-17.45Z"/>
  </g>
</svg>